<svg width="277" height="28" viewBox="0 0 277 28" fill="none" xmlns="http://www.w3.org/2000/svg">
<path d="M13.8147 2.46309V10.2771H4.66245V2.46309H0V22.2811H4.66245V14.1557H13.8147V22.2811H18.4771V2.46309H13.8147Z" fill="white"/>
<path d="M29.1724 6.82306C26.6973 6.82306 24.1934 7.47422 22.4954 8.6633L24.1071 11.7492C25.2295 10.8716 26.9276 10.3337 28.568 10.3337C30.9856 10.3337 32.1368 11.4378 32.1368 13.3347H28.568C23.848 13.3347 21.9197 15.2032 21.9197 17.8928C21.9197 20.5258 24.0783 22.5076 27.7046 22.5076C29.9783 22.5076 31.59 21.7715 32.4246 20.3842V22.2811H36.6266V13.5895C36.6266 8.97472 33.8924 6.82306 29.1724 6.82306ZM28.8271 19.5349C27.2441 19.5349 26.2944 18.7988 26.2944 17.6946C26.2944 16.6754 26.9563 15.911 29.0573 15.911H32.1368V17.4682C31.6188 18.8554 30.3237 19.5349 28.8271 19.5349Z" fill="white"/>
<path d="M43.1364 4.92619C44.8057 4.92619 45.9281 3.85035 45.9281 2.37816C45.9281 1.01921 44.8057 0 43.1364 0C41.4671 0 40.3447 1.07584 40.3447 2.46309C40.3447 3.85036 41.4671 4.92619 43.1364 4.92619ZM39.5388 28C43.2803 28 45.3813 25.7634 45.3813 22.2528V7.04955H40.8915V22.2811C40.8915 23.7816 40.172 24.4894 39.0496 24.4894C38.3013 24.4894 37.6393 24.2912 37.15 23.9515L35.9413 27.1507C36.8047 27.7452 38.1574 28 39.5388 28Z" fill="white"/>
<path d="M51.7602 4.92619C53.4295 4.92619 54.5519 3.85035 54.5519 2.37816C54.5519 1.01921 53.4295 0 51.7602 0C50.0909 0 48.9685 1.07584 48.9685 2.46309C48.9685 3.85036 50.0909 4.92619 51.7602 4.92619ZM49.5153 22.2811H54.0051V7.04955H49.5153V22.2811Z" fill="white"/>
<path d="M67.5832 6.82306C65.4822 6.82306 63.6691 7.53084 62.4603 8.83317V7.04955H58.172V22.2811H62.6617V14.7503C62.6617 11.9474 64.2159 10.6451 66.3744 10.6451C68.3603 10.6451 69.5115 11.7776 69.5115 14.2406V22.2811H74.0013V13.5612C74.0013 8.9181 71.2383 6.82306 67.5832 6.82306Z" fill="white"/>
<path d="M83.2803 22.5076C87.914 22.5076 90.5905 20.4975 90.5905 17.6663C90.5905 11.6643 81.2369 14.184 81.2369 11.5794C81.2369 10.7867 82.1003 10.1638 84.1149 10.1638C85.5252 10.1638 87.0505 10.4469 88.5759 11.2963L90.0725 8.15369C88.6047 7.30435 86.2447 6.82306 84.1149 6.82306C79.5964 6.82306 76.9486 8.86148 76.9486 11.7492C76.9486 17.8362 86.3022 15.2882 86.3022 17.7796C86.3022 18.6289 85.5252 19.1668 83.453 19.1668C81.5535 19.1668 79.4525 18.5723 78.071 17.6946L76.5744 20.8655C78.0135 21.7998 80.6613 22.5076 83.2803 22.5076Z" fill="white"/>
<path d="M104.902 22.2811H110.341L103.319 13.5046L109.766 7.04955H104.412L97.8504 13.1648V1.27401H93.3607V22.2811H97.8504V18.4024L100.009 16.3074L104.902 22.2811Z" fill="white"/>
<path d="M122.513 7.04955L118.138 17.3832L113.792 7.04955H109.158L115.864 22.3943L115.807 22.5359C115.202 23.8948 114.512 24.4328 113.274 24.4328C112.382 24.4328 111.432 24.0647 110.741 23.4702L109.101 26.6127C110.108 27.4904 111.835 28 113.418 28C116.21 28 118.339 26.8959 119.836 23.2154L126.83 7.04955H122.513Z" fill="white"/>
<path d="M152.181 22.2811H157.074L148.066 2.46309H143.461L134.481 22.2811H139.259L141.043 18.0344H150.397L152.181 22.2811ZM142.54 14.5521L145.734 6.96461L148.929 14.5521H142.54Z" fill="white"/>
<path d="M166.19 22.5076C169.442 22.5076 172.004 21.092 173.126 18.6572L169.644 16.7887C168.809 18.2609 167.571 18.8837 166.161 18.8837C163.888 18.8837 162.103 17.3266 162.103 14.6653C162.103 12.004 163.888 10.4469 166.161 10.4469C167.571 10.4469 168.809 11.0981 169.644 12.542L173.126 10.7017C172.004 8.21031 169.442 6.82306 166.19 6.82306C161.153 6.82306 157.556 10.0789 157.556 14.6653C157.556 19.2518 161.153 22.5076 166.19 22.5076Z" fill="white"/>
<path d="M181.957 6.82306C179.481 6.82306 176.978 7.47422 175.279 8.6633L176.891 11.7492C178.014 10.8716 179.712 10.3337 181.352 10.3337C183.77 10.3337 184.921 11.4378 184.921 13.3347H181.352C176.632 13.3347 174.704 15.2032 174.704 17.8928C174.704 20.5258 176.862 22.5076 180.489 22.5076C182.762 22.5076 184.374 21.7715 185.209 20.3842V22.2811H189.411V13.5895C189.411 8.97472 186.677 6.82306 181.957 6.82306ZM181.611 19.5349C180.028 19.5349 179.079 18.7988 179.079 17.6946C179.079 16.6754 179.74 15.911 181.841 15.911H184.921V17.4682C184.403 18.8554 183.108 19.5349 181.611 19.5349Z" fill="white"/>
<path d="M204.925 1.27401V8.6633C203.802 7.41759 202.191 6.82306 200.291 6.82306C195.916 6.82306 192.549 9.88069 192.549 14.6653C192.549 19.45 195.916 22.5076 200.291 22.5076C202.363 22.5076 204.004 21.8564 205.126 20.5258V22.2811H209.415V1.27401H204.925ZM201.068 18.8837C198.823 18.8837 197.096 17.2983 197.096 14.6653C197.096 12.0324 198.823 10.4469 201.068 10.4469C203.284 10.4469 205.011 12.0324 205.011 14.6653C205.011 17.2983 203.284 18.8837 201.068 18.8837Z" fill="white"/>
<path d="M228.737 14.7219C228.737 9.82407 225.226 6.82306 220.679 6.82306C215.959 6.82306 212.419 10.1072 212.419 14.6653C212.419 19.1952 215.901 22.5076 221.254 22.5076C224.046 22.5076 226.205 21.6582 227.644 20.0445L225.255 17.4965C224.19 18.4874 223.01 18.9687 221.369 18.9687C219.009 18.9687 217.369 17.8079 216.937 15.911H228.651C228.68 15.543 228.737 15.0617 228.737 14.7219ZM220.708 10.1638C222.722 10.1638 224.19 11.4095 224.507 13.3347H216.88C217.196 11.3812 218.664 10.1638 220.708 10.1638Z" fill="white"/>
<path d="M251.556 6.82306C249.225 6.82306 247.21 7.75733 245.973 9.31446C244.879 7.64409 243.037 6.82306 240.879 6.82306C238.893 6.82306 237.166 7.50253 236.015 8.80486V7.04955H231.726V22.2811H236.216V14.637C236.216 11.9191 237.626 10.6451 239.612 10.6451C241.483 10.6451 242.548 11.7776 242.548 14.2406V22.2811H247.038V14.637C247.038 11.9191 248.448 10.6451 250.463 10.6451C252.276 10.6451 253.398 11.7776 253.398 14.2406V22.2811H257.888V13.5612C257.888 8.9181 255.24 6.82306 251.556 6.82306Z" fill="white"/>
<path d="M272.683 7.04955L268.308 17.3832L263.962 7.04955H259.329L266.035 22.3943L265.977 22.5359C265.373 23.8948 264.682 24.4328 263.444 24.4328C262.552 24.4328 261.602 24.0647 260.912 23.4702L259.271 26.6127C260.279 27.4904 262.005 28 263.588 28C266.38 28 268.51 26.8959 270.006 23.2154L277 7.04955H272.683Z" fill="white"/>
</svg>
