<svg width="91" height="91" viewBox="0 0 91 91" fill="none" xmlns="http://www.w3.org/2000/svg">
<mask id="path-1-inside-1" fill="white">
<path d="M86.45 0H4.55C3.34437 0.0036007 2.18915 0.484131 1.33664 1.33664C0.484131 2.18915 0.0036007 3.34437 0 4.55V89.4833C0 89.8856 0.159791 90.2713 0.444221 90.5558C0.728652 90.8402 1.11442 91 1.51667 91H59.15C59.5522 91 59.938 90.8402 60.2224 90.5558C60.5069 90.2713 60.6667 89.8856 60.6667 89.4833V57.6333H86.45C87.6556 57.6297 88.8109 57.1492 89.6634 56.2967C90.5159 55.4442 90.9964 54.289 91 53.0833V4.55C90.9964 3.34437 90.5159 2.18915 89.6634 1.33664C88.8109 0.484131 87.6556 0.0036007 86.45 0ZM57.6333 87.9667H3.03333V51.5667H57.6333V87.9667ZM87.9667 53.0833C87.9667 53.4856 87.8069 53.8713 87.5224 54.1558C87.238 54.4402 86.8522 54.6 86.45 54.6H60.6667V51.5667H87.9667V53.0833ZM87.9667 48.5333H3.03333V4.55C3.03333 4.14776 3.19312 3.76199 3.47756 3.47756C3.76199 3.19312 4.14776 3.03333 4.55 3.03333H86.45C86.8522 3.03333 87.238 3.19312 87.5224 3.47756C87.8069 3.76199 87.9667 4.14776 87.9667 4.55V48.5333Z"/>
</mask>
<path d="M86.45 0H4.55C3.34437 0.0036007 2.18915 0.484131 1.33664 1.33664C0.484131 2.18915 0.0036007 3.34437 0 4.55V89.4833C0 89.8856 0.159791 90.2713 0.444221 90.5558C0.728652 90.8402 1.11442 91 1.51667 91H59.15C59.5522 91 59.938 90.8402 60.2224 90.5558C60.5069 90.2713 60.6667 89.8856 60.6667 89.4833V57.6333H86.45C87.6556 57.6297 88.8109 57.1492 89.6634 56.2967C90.5159 55.4442 90.9964 54.289 91 53.0833V4.55C90.9964 3.34437 90.5159 2.18915 89.6634 1.33664C88.8109 0.484131 87.6556 0.0036007 86.45 0ZM57.6333 87.9667H3.03333V51.5667H57.6333V87.9667ZM87.9667 53.0833C87.9667 53.4856 87.8069 53.8713 87.5224 54.1558C87.238 54.4402 86.8522 54.6 86.45 54.6H60.6667V51.5667H87.9667V53.0833ZM87.9667 48.5333H3.03333V4.55C3.03333 4.14776 3.19312 3.76199 3.47756 3.47756C3.76199 3.19312 4.14776 3.03333 4.55 3.03333H86.45C86.8522 3.03333 87.238 3.19312 87.5224 3.47756C87.8069 3.76199 87.9667 4.14776 87.9667 4.55V48.5333Z" fill="#15516A"/>
<path d="M86.45 0L86.4739 -7.99996L86.4619 -8H86.45V0ZM4.55 0V-8H4.53805L4.52611 -7.99996L4.55 0ZM0 4.55L-7.99996 4.52611L-8 4.53805V4.55H0ZM0 89.4833H-8H0ZM60.6667 57.6333V49.6333H52.6667V57.6333H60.6667ZM86.45 57.6333V65.6333H86.4619L86.4739 65.6333L86.45 57.6333ZM91 53.0833L99 53.1072L99 53.0953V53.0833H91ZM91 4.55H99V4.53805L99 4.52611L91 4.55ZM57.6333 87.9667V95.9667H65.6333V87.9667H57.6333ZM3.03333 87.9667H-4.96667V95.9667H3.03333V87.9667ZM3.03333 51.5667V43.5667H-4.96667V51.5667H3.03333ZM57.6333 51.5667H65.6333V43.5667H57.6333V51.5667ZM60.6667 54.6H52.6667V62.6H60.6667V54.6ZM60.6667 51.5667V43.5667H52.6667V51.5667H60.6667ZM87.9667 51.5667H95.9667V43.5667H87.9667V51.5667ZM87.9667 48.5333V56.5333H95.9667V48.5333H87.9667ZM3.03333 48.5333H-4.96667V56.5333H3.03333V48.5333ZM4.55 3.03333V11.0333V3.03333ZM86.45 -8H4.55V8H86.45V-8ZM4.52611 -7.99996C1.20704 -7.99005 -1.97326 -6.66716 -4.32021 -4.32021L6.9935 6.9935C6.35157 7.63542 5.48171 7.99725 4.57389 7.99996L4.52611 -7.99996ZM-4.32021 -4.32021C-6.66716 -1.97326 -7.99005 1.20704 -7.99996 4.52611L7.99996 4.57389C7.99725 5.48171 7.63542 6.35157 6.9935 6.9935L-4.32021 -4.32021ZM-8 4.55V89.4833H8V4.55H-8ZM-8 89.4833C-8 92.0073 -6.99737 94.4279 -5.21263 96.2126L6.10108 84.8989C7.31695 86.1148 8 87.7639 8 89.4833H-8ZM-5.21263 96.2126C-3.42791 97.9974 -1.00731 99 1.51667 99V83C3.23615 83 4.88522 83.6831 6.10108 84.8989L-5.21263 96.2126ZM1.51667 99H59.15V83H1.51667V99ZM59.15 99C61.674 99 64.0946 97.9974 65.8793 96.2126L54.5656 84.8989C55.7815 83.6831 57.4305 83 59.15 83V99ZM65.8793 96.2126C67.6641 94.4279 68.6667 92.0072 68.6667 89.4833H52.6667C52.6667 87.7639 53.3497 86.1148 54.5656 84.8989L65.8793 96.2126ZM68.6667 89.4833V57.6333H52.6667V89.4833H68.6667ZM60.6667 65.6333H86.45V49.6333H60.6667V65.6333ZM86.4739 65.6333C89.7929 65.6234 92.9733 64.3005 95.3202 61.9535L84.0065 50.6398C84.6484 49.9979 85.5183 49.6361 86.4261 49.6334L86.4739 65.6333ZM95.3202 61.9535C97.6672 59.6066 98.9901 56.4263 99 53.1072L83 53.0594C83.0027 52.1516 83.3646 51.2818 84.0065 50.6398L95.3202 61.9535ZM99 53.0833V4.55H83V53.0833H99ZM99 4.52611C98.9901 1.20705 97.6672 -1.97326 95.3202 -4.32021L84.0065 6.9935C83.3646 6.35156 83.0027 5.4817 83 4.57389L99 4.52611ZM95.3202 -4.32021C92.9733 -6.66717 89.793 -7.99005 86.4739 -7.99996L86.4261 7.99996C85.5183 7.99725 84.6484 7.63543 84.0065 6.9935L95.3202 -4.32021ZM57.6333 79.9667H3.03333V95.9667H57.6333V79.9667ZM11.0333 87.9667V51.5667H-4.96667V87.9667H11.0333ZM3.03333 59.5667H57.6333V43.5667H3.03333V59.5667ZM49.6333 51.5667V87.9667H65.6333V51.5667H49.6333ZM79.9667 53.0833C79.9667 51.3639 80.6497 49.7148 81.8656 48.4989L93.1793 59.8126C94.964 58.0279 95.9667 55.6073 95.9667 53.0833H79.9667ZM81.8656 48.4989C83.0815 47.283 84.7306 46.6 86.45 46.6V62.6C88.9739 62.6 91.3945 61.5974 93.1793 59.8126L81.8656 48.4989ZM86.45 46.6H60.6667V62.6H86.45V46.6ZM68.6667 54.6V51.5667H52.6667V54.6H68.6667ZM60.6667 59.5667H87.9667V43.5667H60.6667V59.5667ZM79.9667 51.5667V53.0833H95.9667V51.5667H79.9667ZM87.9667 40.5333H3.03333V56.5333H87.9667V40.5333ZM11.0333 48.5333V4.55H-4.96667V48.5333H11.0333ZM11.0333 4.55C11.0333 6.26949 10.3503 7.91855 9.13441 9.13441L-2.1793 -2.1793C-3.96402 -0.394582 -4.96667 2.02602 -4.96667 4.55H11.0333ZM9.13441 9.13441C7.91855 10.3503 6.26949 11.0333 4.55 11.0333V-4.96667C2.02602 -4.96667 -0.394582 -3.96402 -2.1793 -2.1793L9.13441 9.13441ZM4.55 11.0333H86.45V-4.96667H4.55V11.0333ZM86.45 11.0333C84.7305 11.0333 83.0815 10.3503 81.8656 9.13441L93.1793 -2.1793C91.3946 -3.96403 88.974 -4.96667 86.45 -4.96667V11.0333ZM81.8656 9.13441C80.6497 7.91855 79.9667 6.26949 79.9667 4.55H95.9667C95.9667 2.02602 94.964 -0.39458 93.1793 -2.1793L81.8656 9.13441ZM79.9667 4.55V48.5333H95.9667V4.55H79.9667Z" fill="#15516A" mask="url(#path-1-inside-1)"/>
</svg>
