<svg width="93" height="93" viewBox="0 0 93 93" fill="none" xmlns="http://www.w3.org/2000/svg">
<path d="M58.7156 93C54.8494 93 51.39 90.4351 50.2969 86.7523C50.2894 86.7244 50.2819 86.6983 50.2744 86.6741L48.2456 78.7654L5.9175 78.4678C2.65875 78.4585 0.00375 75.821 0 72.5846V5.88318C0.00375 2.64306 2.66437 0.00372 5.93062 0H87.0694C90.3356 0.00372 92.9962 2.64306 93 5.88318V72.5846C92.9962 75.7987 90.3619 78.4343 87.1256 78.4678L83.2688 78.6761V84.2394C83.2631 89.0642 79.3031 92.9944 74.4412 93H58.755C58.7419 93 58.7287 93 58.7156 93ZM51.7369 86.3319C52.6444 89.386 55.5131 91.512 58.7194 91.512C58.7306 91.512 58.74 91.512 58.7513 91.512H74.4412C78.4781 91.5064 81.765 88.244 81.7688 84.2394V77.2681L87.0956 76.9817C89.5219 76.9631 91.4981 74.9915 91.5 72.5846V5.88318C91.4962 3.46332 89.5088 1.49172 87.0675 1.488H5.9325C3.49125 1.48986 1.50375 3.46332 1.5 5.88504V72.5828C1.50188 75.0008 3.4875 76.9724 5.925 76.978L49.4137 77.283L51.7294 86.3114L51.015 86.5402L51.7369 86.3319ZM58.7269 90.768C55.8581 90.768 53.2838 88.8671 52.4606 86.1347L52.4531 86.105L50.0719 76.8217C49.5225 74.6827 48.7837 72.5772 47.8763 70.5628L47.2463 69.0823H48.375C51.0544 69.0823 53.5631 70.388 55.0856 72.5772L57.1538 75.5476V79.9242C57.1538 80.1288 57.3225 80.2962 57.5288 80.2962C57.735 80.2962 57.9038 80.1288 57.9038 79.9242V49.5932C57.9019 48.0271 59.1862 46.7492 60.7669 46.7474H60.7688C62.3475 46.7474 63.6338 48.0215 63.6356 49.5876V69.4022C63.6356 69.4375 63.6413 69.4747 63.6506 69.5082L63.6825 69.6142V74.2735C63.6825 74.4781 63.8513 74.6455 64.0575 74.6455C64.2638 74.6455 64.4325 74.4781 64.4325 74.2735V68.0407C64.4325 67.3971 64.6837 66.7926 65.1431 66.3369C65.6006 65.8812 66.2119 65.6301 66.8587 65.6301C66.8587 65.6301 66.8587 65.6301 66.8606 65.6301C68.1994 65.6301 69.2887 66.7089 69.2887 68.0369L69.2812 69.4133C69.2569 69.5714 69.2456 69.7333 69.2456 69.8932V74.2735C69.2456 74.4781 69.4144 74.6455 69.6206 74.6455H69.6637C69.87 74.6455 70.0387 74.4781 70.0387 74.2735V69.4226L70.0556 69.3445C70.3575 67.9793 71.7244 67.1125 73.1006 67.4138C74.265 67.6687 75.1087 68.7121 75.1069 69.8932V75.4304C75.1069 75.635 75.2756 75.8024 75.4819 75.8024C75.6881 75.8024 75.8569 75.635 75.8569 75.4304V71.6416C75.8494 70.9664 76.1119 70.321 76.5938 69.8318C77.0756 69.3445 77.7206 69.0711 78.4106 69.0637C78.42 69.0637 78.4275 69.0637 78.4369 69.0637C79.8469 69.0637 81.0019 70.1945 81.0169 71.597V84.2394C81.0131 87.8329 78.0638 90.7624 74.4394 90.768H58.7531C58.7456 90.768 58.7344 90.768 58.7269 90.768ZM53.9025 85.7237C54.54 87.8218 56.5219 89.28 58.7306 89.28C58.7381 89.28 58.7456 89.28 58.7531 89.28H74.4431C77.2406 89.2763 79.5187 87.0145 79.5206 84.2394V71.6137C79.515 71.026 79.0312 70.5535 78.4406 70.5535C78.4369 70.5535 78.4331 70.5535 78.4294 70.5535C77.8331 70.5591 77.355 71.0446 77.3606 71.636V75.4323C77.3606 76.4572 76.5188 77.2923 75.4856 77.2923C74.4525 77.2923 73.6106 76.4572 73.6106 75.4323V69.8932C73.6106 69.404 73.2638 68.9725 72.7819 68.8684C72.2381 68.7512 71.6963 69.073 71.5425 69.5975V74.2754C71.5425 75.3002 70.7006 76.1354 69.6675 76.1354H69.6244C68.5912 76.1354 67.7494 75.3002 67.7494 74.2754V69.8951C67.7494 69.6812 67.7644 69.4673 67.7925 69.2552V68.0425C67.7925 67.5329 67.3762 67.12 66.8644 67.12C66.3525 67.12 65.9362 67.5329 65.9381 68.0407V74.2735C65.9381 75.2984 65.0963 76.1335 64.0631 76.1335C63.03 76.1335 62.1881 75.2984 62.1881 74.2735V69.8207C62.1563 69.6849 62.1394 69.5454 62.1394 69.404V49.5932C62.1394 49.2286 61.9969 48.8882 61.7381 48.6316C61.4794 48.3767 61.1362 48.2354 60.7725 48.2354C60.7725 48.2354 60.7725 48.2354 60.7706 48.2354C60.405 48.2354 60.0637 48.3767 59.805 48.6334C59.5462 48.8901 59.4056 49.2305 59.4056 49.5913V79.9242C59.4056 80.9491 58.5637 81.7842 57.5306 81.7842C56.4975 81.7842 55.6556 80.9491 55.6556 79.9242V76.0108L53.8538 73.4216C52.8394 71.9634 51.2887 70.985 49.5619 70.6744C50.3587 72.54 51.0206 74.4837 51.5269 76.4553L53.9025 85.7237ZM49.2319 76.539L5.925 76.234C3.90375 76.2321 2.25187 74.5953 2.25 72.5846V18.6707H90.75V72.5828C90.7481 74.2345 89.6344 75.6332 88.1156 76.0833L88.1775 76.234L87.0488 76.2358L81.7688 76.5204V71.6435C81.7706 70.7618 81.4256 69.9323 80.7975 69.3073C80.1694 68.6824 79.335 68.3383 78.4463 68.3383C78.4444 68.3383 78.4444 68.3383 78.4425 68.3383C77.805 68.3383 77.1862 68.5187 76.65 68.8591L75.9187 69.3222L75.5606 68.5391C74.8106 66.893 72.8494 66.1602 71.1919 66.9042C71.07 66.9581 70.95 67.0214 70.8356 67.0902L70.1044 67.5329L69.7594 66.7554C69.0544 65.1744 67.185 64.4546 65.5912 65.1539C65.55 65.1725 65.5088 65.1911 65.4675 65.2116L64.3856 65.7398V49.5913C64.3856 48.6334 64.0106 47.7313 63.3281 47.0543C62.6456 46.3772 61.7381 46.0034 60.7725 46.0015H60.7706C59.805 46.0015 58.8975 46.3735 58.215 47.0506C57.5306 47.7276 57.1556 48.6278 57.1538 49.5857V74.2345L55.7044 72.1513C54.0431 69.7612 51.3038 68.3345 48.3769 68.3345C48.3769 68.3345 48.3769 68.3345 48.375 68.3345C47.5425 68.3345 46.8675 69.006 46.8675 69.83C46.8675 70.042 46.9125 70.2466 46.9987 70.4419L47.1881 70.8623C47.8744 72.3875 48.465 73.9722 48.9431 75.5718L49.2319 76.539ZM3.75 20.1587V72.5828C3.75187 73.7732 4.73063 74.7441 5.9325 74.746L47.205 75.0361C46.8056 73.8253 46.3425 72.6311 45.8213 71.4724L45.6319 71.052C45.4575 70.667 45.3694 70.2559 45.3694 69.8337C45.3694 69.0358 45.6825 68.288 46.2506 67.7226C46.8187 67.159 47.5744 66.8484 48.3769 66.8484H48.3787C51.1256 66.8484 53.73 67.9235 55.6556 69.7946V49.5932C55.6575 46.7902 57.9525 44.5154 60.7725 44.5154C60.7744 44.5154 60.7744 44.5154 60.7763 44.5154C62.1431 44.5154 63.4275 45.0455 64.3931 46.0034C65.3587 46.9631 65.8894 48.2372 65.8894 49.5932V63.5041C67.755 63.1042 69.7031 63.8854 70.7606 65.472C72.885 64.6201 75.3019 65.392 76.5469 67.2371C77.145 66.9823 77.79 66.8503 78.4463 66.8503C78.4481 66.8503 78.45 66.8503 78.4519 66.8503C79.7419 66.8521 80.9531 67.3525 81.8625 68.2564C82.7719 69.1604 83.2725 70.3657 83.2725 71.6435V74.9487L85.9875 74.8018L85.965 74.746L87.0713 74.7441C88.2731 74.7422 89.2519 73.7713 89.2537 72.5791V20.1587H3.75ZM90.75 17.9267H2.25V5.88318C2.25187 3.87066 3.90375 2.23386 5.93062 2.232H87.0675C89.0962 2.23386 90.7462 3.87066 90.75 5.88318V17.9267ZM3.75 16.4387H89.25V5.88318C89.2481 4.69092 88.2694 3.72 87.0675 3.72H5.9325C4.73063 3.72186 3.75187 4.69278 3.75 5.88504V16.4387Z" fill="#15516A"/>
</svg>
