<svg width="86" height="91" viewBox="0 0 86 91" fill="none" xmlns="http://www.w3.org/2000/svg">
<path d="M66.4727 48.8642V24.5238C66.4727 21.01 65.1178 17.6951 62.6576 15.1879L51.8403 4.00151C51.8352 3.99618 51.8298 3.99067 51.8247 3.98534C49.3341 1.45262 45.8684 0 42.3168 0H7.99805C3.58792 0 0 3.58792 0 7.99805V77.1367C0 81.5468 3.58792 85.1348 7.99805 85.1348H49.2027C53.002 88.7664 58.1483 91 63.8066 91C75.567 91 85.1348 81.512 85.1348 69.8496C85.1348 59.0825 76.9794 50.1693 66.4727 48.8642ZM5.33203 77.1367V7.99805C5.33203 6.52801 6.52801 5.33203 7.99805 5.33203H42.3168C44.445 5.33203 46.5216 6.20133 48.016 7.71687L58.8313 18.9015C58.8365 18.9068 58.8416 18.9122 58.8466 18.9173C60.3259 20.4222 61.1406 22.4132 61.1406 24.524V48.8668C50.7321 50.1817 42.6562 59.0903 42.6562 69.8498C42.6562 73.4459 43.5595 76.8347 45.1493 79.8029H7.99805C6.52801 79.8027 5.33203 78.6068 5.33203 77.1367ZM63.8066 85.668C55.0843 85.668 47.9883 78.5719 47.9883 69.8496C47.9883 61.1273 55.0843 54.0312 63.8066 54.0312C72.6269 54.0312 79.8027 61.1273 79.8027 69.8496C79.8027 78.5719 72.6269 85.668 63.8066 85.668Z" fill="#15516A"/>
</svg>
