<svg width="113" height="96" viewBox="0 0 113 96" fill="none" xmlns="http://www.w3.org/2000/svg">
<path d="M108.286 0H4.71387C2.61876 0 0.914062 1.7047 0.914062 3.79981V17.174C0.914062 19.2796 4.17104 19.2796 4.17104 17.174V3.79981C4.17104 3.5006 4.41444 3.25698 4.71387 3.25698H108.286C108.585 3.25698 108.829 3.5006 108.829 3.79981V83.2134C108.829 83.5126 108.585 83.7562 108.286 83.7562H87.4168V80.3676H103.796C104.695 80.3676 105.424 79.6385 105.424 78.7392V61.6858C105.424 59.5803 102.167 59.5803 102.167 61.6858V77.1107H87.4168V69.8852C87.4697 69.8897 87.5232 69.8943 87.5733 69.8988C88.9252 70.0176 90.6067 70.1655 91.7716 68.9984C92.9352 67.8326 92.7879 66.1494 92.6696 64.7969C92.5422 63.3454 92.6794 62.948 93.795 62.0206C96.6674 59.6322 96.7209 57.0748 93.795 54.6425C92.6794 53.7145 92.5428 53.3176 92.6696 51.8658C92.9884 48.223 91.2869 46.4378 87.5733 46.7641C86.124 46.8913 85.7307 46.7537 84.8066 45.6378C82.4219 42.7587 79.8628 42.7055 77.4337 45.6378C76.5096 46.7535 76.1166 46.8918 74.6672 46.7641C71.0218 46.4438 69.2454 48.1548 69.5707 51.8658C69.6975 53.3178 69.5609 53.7145 68.4453 54.6425C65.5729 57.0308 65.5197 59.5886 68.4453 62.0206C69.5609 62.9487 69.6975 63.3456 69.5707 64.7973C69.2287 68.699 71.0921 70.2076 74.8231 69.8854V77.1111H10.8324V9.9023H102.167V65.5C102.167 67.6055 105.424 67.6055 105.424 65.5V8.27381C105.424 7.37445 104.695 6.64532 103.796 6.64532H9.20394C8.30436 6.64532 7.57545 7.37445 7.57545 8.27381V78.7392C7.57545 79.6385 8.30436 80.3676 9.20394 80.3676H74.8231V83.7562H4.71387C4.41444 83.7562 4.17104 83.5126 4.17104 83.2134V15.5C4.17104 13.3945 0.914062 13.3945 0.914062 15.5L0.914063 83.2134C0.914063 85.3085 2.61876 87.0132 4.71387 87.0132H74.8231V94.3848C75.055 95.7232 75.8269 96.2154 77.1384 95.8613L81.1199 94.0094L85.1015 95.8613C86.0866 96.3194 87.4168 95.5953 87.4168 94.3848V87.0132H108.286C110.381 87.0132 112.086 85.3085 112.086 83.2134V3.79981C112.086 1.70448 110.381 0 108.286 0ZM74.3817 66.654C72.7515 66.7976 72.6724 66.7103 72.8149 65.0809C73.0337 62.5802 72.4586 61.1211 70.5272 59.5156C69.2057 58.4167 69.2059 58.2454 70.5272 57.1465C72.4586 55.541 73.034 54.0819 72.8149 51.5814C72.6724 49.9518 72.7515 49.8654 74.3817 50.008C76.8826 50.2284 78.3398 49.6489 79.9416 47.7149C81.0361 46.3939 81.2035 46.3939 82.2981 47.7149C83.9003 49.6489 85.3571 50.2276 87.858 50.008C89.4884 49.8645 89.5672 49.9518 89.4248 51.5812C89.2059 54.0819 89.7811 55.5408 91.7125 57.1463C93.0337 58.2452 93.0344 58.4169 91.7123 59.5156C89.7809 61.1213 89.2055 62.5798 89.4246 65.0805C89.5677 66.7098 89.4882 66.7973 87.8582 66.654C86.8353 66.5641 85.6749 66.4621 84.6535 66.8864C83.6649 67.297 82.9699 68.1357 82.2979 68.9472C81.9813 69.3293 81.4035 70.027 81.1195 70.1518C80.8357 70.027 80.2579 69.3293 79.9413 68.9472C79.2693 68.1359 78.5745 67.297 77.5857 66.8864C76.5317 66.565 75.4637 66.4875 74.3817 66.654ZM81.8067 90.737C81.3712 90.5344 80.8687 90.5344 80.4332 90.737L78.0801 91.8315V71.7796C78.8529 72.6293 79.8063 73.4181 81.1199 73.4181C82.4336 73.4181 83.387 72.6295 84.1598 71.7799V91.8315L81.8067 90.737Z" fill="#15516A"/>
</svg>
